<svg width="73" height="77" viewBox="0 0 73 77" fill="none" xmlns="http://www.w3.org/2000/svg">
<path d="M69.8131 29.1203C69.9064 29.1126 69.9993 29.106 70.0919 29.1012C70.1396 29.0988 70.1871 29.0968 70.2346 29.0951C70.3252 29.0918 70.4153 29.0902 70.5051 29.0897C70.5489 29.0895 70.5927 29.0888 70.6363 29.0892C70.7478 29.0902 70.8586 29.0935 70.9688 29.0988C70.9885 29.0997 71.0085 29.0998 71.0282 29.1009C71.1577 29.108 71.2861 29.1183 71.4138 29.131C71.4504 29.1347 71.4866 29.1396 71.5231 29.1437C71.6147 29.1541 71.7061 29.1655 71.7967 29.1788C71.8408 29.1852 71.8847 29.1923 71.9286 29.1994C72.0134 29.2132 72.0976 29.2284 72.1814 29.2447C72.2237 29.2529 72.2661 29.2609 72.3081 29.2698C72.4032 29.2899 72.4974 29.3119 72.5912 29.3352C72.619 29.3421 72.6472 29.3481 72.6749 29.3553C72.7974 29.3871 72.9187 29.4217 73.0389 29.459C73.0699 29.4685 73.1003 29.4793 73.1312 29.4892C73.221 29.5182 73.3103 29.5484 73.3987 29.5805C73.4387 29.5949 73.4784 29.6099 73.5181 29.625C73.6 29.6561 73.6812 29.6886 73.7618 29.7223C73.7986 29.7377 73.8356 29.7527 73.8722 29.7687C73.9741 29.813 74.0749 29.8593 74.1745 29.9076C74.187 29.9137 74.1999 29.9192 74.2124 29.9254C74.3111 29.9739 74.4087 30.0243 74.5051 30.0768L68.7825 26.9637C68.6861 26.9113 68.5885 26.8609 68.4899 26.8124C68.4879 26.8114 68.486 26.8103 68.4841 26.8094C68.4732 26.804 68.4618 26.7994 68.4508 26.7941C68.3516 26.7459 68.2512 26.6999 68.1498 26.6557C68.1129 26.6397 68.0757 26.6245 68.0386 26.609C67.9583 26.5755 67.8774 26.5431 67.7959 26.5121C67.7559 26.4969 67.7159 26.4818 67.6756 26.4672C67.5875 26.4353 67.4985 26.4052 67.409 26.3763C67.378 26.3663 67.3473 26.3555 67.3161 26.3458C67.1959 26.3086 67.0747 26.274 66.9522 26.2422C66.9471 26.2409 66.9422 26.2392 66.9372 26.2379C66.9145 26.2321 66.8913 26.2277 66.8685 26.2221C66.7747 26.1988 66.6805 26.1768 66.5854 26.1567C66.5433 26.1478 66.5009 26.1398 66.4586 26.1316C66.375 26.1153 66.291 26.1002 66.2064 26.0864C66.1622 26.0792 66.118 26.0721 66.0735 26.0656C65.9834 26.0524 65.8927 26.0411 65.8015 26.0308C65.7646 26.0266 65.7279 26.0216 65.6907 26.0179C65.5632 26.0052 65.4348 25.9949 65.3055 25.9878C65.2859 25.9867 65.266 25.9866 65.2464 25.9857C65.136 25.9804 65.0251 25.9771 64.9136 25.9761C64.87 25.9757 64.8262 25.9764 64.7824 25.9766C64.6926 25.9771 64.6025 25.9787 64.5119 25.982C64.4644 25.9837 64.4169 25.9857 64.3692 25.9881C64.2766 25.9929 64.1837 25.9995 64.0904 26.0072C64.0477 26.0107 64.0053 26.0136 63.9624 26.0177C63.8275 26.0307 63.692 26.0459 63.5557 26.0651L46.5693 28.4524L52.292 31.5655L69.2784 29.1782C69.4147 29.159 69.5502 29.1438 69.6851 29.1308C69.7279 29.1267 69.7704 29.1238 69.8131 29.1203Z" fill="#284A94"/>
<path d="M35.4961 80.8446C33.7278 79.1812 32.6387 76.6954 32.6441 73.7779L32.6782 55.444L26.9555 52.331L26.9214 70.6649C26.916 73.5823 28.0052 76.0682 29.7734 77.7315C30.2829 78.2108 30.8485 78.6215 31.4602 78.9542L37.1829 82.0673C36.5712 81.7346 36.0056 81.3239 35.4961 80.8446Z" fill="#284A94"/>
<path d="M43.3743 3.96515C43.4216 3.96272 43.4688 3.96071 43.5159 3.95904C43.608 3.95576 43.6997 3.95414 43.791 3.95371C43.8335 3.95351 43.8762 3.95279 43.9186 3.9532C44.037 3.95435 44.1548 3.95775 44.2719 3.96362C44.2851 3.96428 44.2986 3.96433 44.3118 3.96505C44.4416 3.97217 44.5704 3.98276 44.6983 3.99562C44.7368 3.99948 44.7748 4.00454 44.8131 4.00892C44.9034 4.01924 44.9933 4.03061 45.0826 4.04375C45.1271 4.05031 45.1715 4.05738 45.2159 4.06464C45.3013 4.07863 45.3862 4.09406 45.4706 4.11061C45.512 4.11874 45.5536 4.12647 45.5947 4.13521C45.6978 4.15705 45.7999 4.18097 45.9014 4.20657C45.9213 4.2116 45.9416 4.21584 45.9614 4.22101C46.0835 4.25279 46.2042 4.28772 46.3239 4.32491C46.358 4.3355 46.3916 4.34719 46.4255 4.35821C46.5117 4.38625 46.5975 4.41543 46.6824 4.44624C46.723 4.46097 46.7634 4.47614 46.8037 4.49151C46.8846 4.52236 46.9648 4.5546 47.0444 4.58793C47.0813 4.60336 47.1184 4.61841 47.155 4.63438C47.2593 4.67987 47.3625 4.72726 47.4645 4.777C47.4739 4.78159 47.4836 4.78573 47.493 4.79034C47.5766 4.83153 47.6592 4.87483 47.7412 4.91884C47.7547 4.92611 47.7687 4.93272 47.7822 4.94007L42.0595 1.82698C41.9641 1.77506 41.8675 1.7251 41.7698 1.67701L41.7665 1.67531C41.7594 1.6718 41.752 1.6688 41.7448 1.66531C41.6417 1.61497 41.5373 1.56706 41.4318 1.52108C41.3956 1.50528 41.3589 1.4904 41.3224 1.47512C41.2424 1.44162 41.1619 1.40924 41.0806 1.37827C41.0406 1.36303 41.0006 1.34796 40.9603 1.33334C40.8749 1.30234 40.7887 1.27306 40.702 1.24486C40.6684 1.23395 40.6352 1.22237 40.6014 1.21187C40.4816 1.17465 40.3608 1.13972 40.2387 1.10789C40.2358 1.10714 40.2329 1.10618 40.23 1.10543C40.2134 1.10111 40.1963 1.09792 40.1796 1.0937C40.0777 1.06794 39.975 1.04393 39.8715 1.022C39.8309 1.01339 39.7898 1.00574 39.7489 0.997716C39.6639 0.981042 39.5785 0.965521 39.4925 0.951451C39.4485 0.944248 39.4045 0.93723 39.3603 0.930718C39.271 0.917569 39.1811 0.906198 39.0908 0.895872C39.0523 0.891473 39.014 0.886386 38.9753 0.88251C38.8473 0.869653 38.7186 0.85908 38.5888 0.851955C38.5763 0.851279 38.5636 0.851234 38.5511 0.850606C38.4336 0.844676 38.3153 0.841274 38.1963 0.840124C38.1536 0.83971 38.1105 0.840416 38.0675 0.840629C37.9765 0.841073 37.8851 0.842683 37.7934 0.845962C37.7462 0.847631 37.699 0.84964 37.6516 0.852075C37.5582 0.856871 37.4644 0.863461 37.3703 0.871214C37.3279 0.874692 37.2856 0.877589 37.2431 0.881681C37.1076 0.894722 36.9716 0.909984 36.8346 0.929231C36.6831 0.950532 36.5326 0.976658 36.3827 1.00508C36.3391 1.01336 36.2957 1.02243 36.2522 1.0313C36.1389 1.05441 36.0261 1.07956 35.9137 1.10665C35.8735 1.11637 35.8332 1.12556 35.7931 1.13577C35.6462 1.17321 35.5 1.21331 35.3551 1.25738C35.3357 1.2633 35.3165 1.27007 35.2971 1.27609C35.1706 1.31544 35.0448 1.35749 34.9199 1.40179C34.8772 1.41692 34.8347 1.43257 34.7922 1.44827C34.6814 1.48923 34.5714 1.53214 34.462 1.5769C34.4278 1.59089 34.3934 1.60421 34.3594 1.61855C34.2302 1.67304 34.1017 1.7295 33.9746 1.78919C33.9655 1.79343 33.9567 1.79826 33.9477 1.80253C33.8984 1.82586 33.85 1.85117 33.8011 1.87526C33.7048 1.92261 33.6086 1.97024 33.5137 2.02052C33.4571 2.05048 33.4014 2.08212 33.3452 2.1131C33.2591 2.16068 33.1731 2.20862 33.0881 2.25858C33.03 2.29278 32.9724 2.32816 32.9148 2.36345C32.8331 2.41347 32.7518 2.4642 32.6713 2.51637C32.6137 2.55372 32.5565 2.59171 32.4996 2.63011C32.4616 2.65571 32.4227 2.67988 32.385 2.70596C32.3602 2.72312 32.3368 2.74258 32.3121 2.75995C32.1445 2.87788 31.9791 2.99945 31.8172 3.12651C31.802 3.13848 31.7862 3.14961 31.771 3.16165C31.5965 3.30004 31.4267 3.44504 31.2596 3.59356C31.2407 3.61036 31.2205 3.6255 31.2017 3.64241C31.1753 3.66623 31.1505 3.69222 31.1243 3.71628C31.004 3.82641 30.8859 3.93913 30.7698 4.05434C30.7319 4.09192 30.6933 4.12863 30.6559 4.16674C30.508 4.31733 30.3634 4.47157 30.2227 4.63004C30.2163 4.63727 30.2094 4.64394 30.203 4.65118C30.1815 4.67544 30.1619 4.70143 30.1406 4.72587C30.0275 4.85602 29.9169 4.98856 29.8088 5.12358C29.7684 5.17407 29.7285 5.22484 29.6888 5.276C29.5843 5.41082 29.4824 5.54788 29.3831 5.68712C29.3632 5.715 29.3416 5.7414 29.3219 5.76946C29.3158 5.77809 29.3105 5.78727 29.3045 5.79591C29.177 5.97856 29.0548 6.16514 28.9367 6.35473C28.9076 6.40146 28.8797 6.44896 28.8512 6.4961C28.757 6.65181 28.666 6.80963 28.5782 6.96955C28.5609 7.00106 28.5414 7.03115 28.5244 7.06281C28.5115 7.08682 28.4997 7.11147 28.4869 7.13557C28.4583 7.18954 28.4307 7.24408 28.4029 7.2985C28.3549 7.3922 28.3079 7.48638 28.2622 7.58136C28.2345 7.63895 28.2073 7.69671 28.1804 7.75474C28.1362 7.85032 28.0934 7.94658 28.0515 8.04334C28.0271 8.09979 28.0024 8.15608 27.9788 8.21292C27.9342 8.32012 27.8917 8.4283 27.8501 8.53684C27.8321 8.58361 27.8132 8.62993 27.7957 8.67694C27.7916 8.68804 27.787 8.69892 27.7829 8.71003C27.7542 8.7881 27.7289 8.86751 27.7017 8.9462C27.6748 9.02418 27.6466 9.10165 27.6212 9.18023C27.5919 9.27116 27.5656 9.36318 27.5383 9.45487C27.515 9.53302 27.4903 9.61067 27.4686 9.68934C27.4428 9.78248 27.4203 9.87665 27.3967 9.97046C27.377 10.0489 27.3558 10.1268 27.3376 10.2056C27.3154 10.3018 27.2967 10.399 27.2768 10.4959C27.2609 10.5734 27.2433 10.6504 27.2289 10.7282C27.2103 10.8287 27.1954 10.9301 27.1793 11.0312C27.1674 11.1064 27.1536 11.1812 27.143 11.2567C27.1281 11.3633 27.1173 11.4706 27.1053 11.5778C27.0973 11.6487 27.0873 11.7191 27.0806 11.7903C27.0694 11.9093 27.0625 12.0291 27.055 12.1488C27.0512 12.2086 27.0452 12.2681 27.0423 12.3281C27.0336 12.508 27.029 12.6885 27.0287 12.8695L26.9946 31.2034L10.0082 33.5907C9.85658 33.612 9.70604 33.6381 9.55605 33.6665C9.51205 33.6749 9.46827 33.6841 9.42441 33.693C9.31204 33.7159 9.20022 33.7408 9.08888 33.7677C9.04732 33.7777 9.00567 33.7872 8.96426 33.7978C8.8172 33.8353 8.67087 33.8753 8.52579 33.9195C8.51035 33.9242 8.49513 33.9296 8.47971 33.9344C8.34932 33.9748 8.21989 34.0181 8.09123 34.0638C8.04819 34.079 8.00537 34.0949 7.96253 34.1107C7.85389 34.1509 7.74597 34.193 7.63868 34.2368C7.60172 34.2519 7.56457 34.2664 7.52778 34.2819C7.39521 34.3379 7.26343 34.3958 7.13308 34.4572C7.12677 34.4602 7.12062 34.4636 7.11431 34.4665C7.07137 34.4869 7.02929 34.5091 6.98661 34.53C6.88426 34.5802 6.78213 34.6308 6.68126 34.6843C6.62677 34.7131 6.57317 34.7438 6.51914 34.7736C6.43128 34.822 6.34365 34.8708 6.25703 34.9217C6.19979 34.9554 6.14327 34.9903 6.08657 35.025C6.00423 35.0754 5.92231 35.1264 5.84115 35.179C5.7842 35.2159 5.72774 35.2535 5.67139 35.2915C5.63228 35.3178 5.59235 35.3427 5.55353 35.3696C5.529 35.3865 5.50589 35.4058 5.48148 35.4229C5.31204 35.5421 5.14487 35.6649 4.98142 35.7934C4.96832 35.8038 4.95473 35.8133 4.94165 35.8237C4.76716 35.9621 4.5974 36.1071 4.43026 36.2557C4.41106 36.2727 4.39061 36.2881 4.37152 36.3053C4.34516 36.329 4.32057 36.3549 4.29441 36.3788C4.17502 36.4882 4.05779 36.6001 3.94251 36.7145C3.90447 36.7522 3.86578 36.7891 3.82821 36.8274C3.68085 36.9774 3.53674 37.131 3.3967 37.2889C3.39055 37.2958 3.38388 37.3022 3.37775 37.3092C3.27721 37.423 3.1786 37.5388 3.08202 37.6565C2.97496 37.7867 2.87065 37.9195 2.76861 38.0542C2.73456 38.0991 2.70222 38.1455 2.66875 38.1909C2.60974 38.271 2.54992 38.3504 2.49271 38.432C2.48686 38.4403 2.48171 38.4492 2.47589 38.4576C2.34851 38.6401 2.22632 38.8266 2.10825 39.0161C2.07907 39.0629 2.05116 39.1105 2.02257 39.1577C1.92836 39.3133 1.83742 39.471 1.74971 39.6308C1.73247 39.6622 1.71305 39.6923 1.69606 39.7238C1.68328 39.7476 1.67157 39.772 1.65894 39.7958C1.63032 39.8498 1.60275 39.9044 1.57488 39.9589C1.52701 40.0524 1.48002 40.1464 1.4344 40.2412C1.40665 40.2989 1.37934 40.3568 1.35245 40.4149C1.30822 40.5104 1.26548 40.6066 1.22359 40.7034C1.19915 40.7598 1.17446 40.8161 1.15081 40.8729C1.10587 40.9809 1.0631 41.0898 1.02113 41.1992C1.00358 41.2449 0.985066 41.2901 0.968041 41.336C0.963997 41.3469 0.95943 41.3576 0.955415 41.3685C0.926484 41.4473 0.900878 41.5273 0.873494 41.6067C0.846677 41.6844 0.818572 41.7616 0.793257 41.8399C0.763789 41.931 0.737477 42.0233 0.710078 42.1152C0.686861 42.1931 0.662236 42.2705 0.640536 42.3489C0.614684 42.4423 0.592158 42.5367 0.568482 42.6308C0.548775 42.7091 0.527535 42.7868 0.509362 42.8656C0.487188 42.9616 0.468538 43.0586 0.448679 43.1552C0.432711 43.2329 0.415058 43.3101 0.400591 43.3882C0.38211 43.4879 0.367385 43.5885 0.351402 43.6888C0.33928 43.7649 0.325306 43.8405 0.31464 43.9169C0.299897 44.0224 0.289142 44.1288 0.277203 44.2349C0.269111 44.3067 0.258998 44.3782 0.252209 44.4502C0.2411 44.5682 0.234311 44.687 0.226741 44.8056C0.222849 44.8665 0.216781 44.927 0.213853 44.988C0.205179 45.1678 0.200552 45.3482 0.200215 45.529C0.194991 48.3477 1.21289 50.7648 2.87608 52.4249C3.43047 52.9783 4.05656 53.4476 4.74035 53.8196L10.4631 56.9326C7.72788 55.4447 5.91593 52.4004 5.92291 48.6421C5.92325 48.4613 5.92788 48.2809 5.93655 48.1011C5.93951 48.0397 5.94559 47.9788 5.94952 47.9176C5.95707 47.7994 5.96383 47.681 5.97491 47.5633C5.98161 47.4922 5.99161 47.4216 5.99958 47.3507C6.0116 47.2436 6.02249 47.1363 6.03737 47.0297C6.04804 46.9534 6.06201 46.8778 6.07413 46.8017C6.09008 46.7016 6.10478 46.6012 6.12322 46.5017C6.13776 46.4231 6.15552 46.3454 6.17159 46.2672C6.19142 46.1708 6.21003 46.0741 6.23214 45.9783C6.25025 45.8998 6.27145 45.8223 6.29108 45.7442C6.31475 45.6502 6.33728 45.5557 6.36313 45.4623C6.38504 45.3831 6.40993 45.305 6.43338 45.2263C6.46058 45.1351 6.4867 45.0435 6.51596 44.953C6.54127 44.8747 6.56938 44.7975 6.5962 44.7198C6.62738 44.6294 6.65757 44.5386 6.69076 44.4491C6.70769 44.4034 6.72611 44.3584 6.74357 44.3129C6.78568 44.2032 6.82859 44.0939 6.87367 43.9856C6.89718 43.929 6.92179 43.8731 6.94609 43.8169C6.98807 43.72 7.03094 43.6235 7.07526 43.5278C7.10209 43.4698 7.12934 43.412 7.15701 43.3545C7.20259 43.2598 7.24955 43.1658 7.29738 43.0724C7.32536 43.0177 7.35308 42.9628 7.38183 42.9086C7.41115 42.8533 7.44218 42.799 7.47227 42.7442C7.56002 42.5843 7.65103 42.4265 7.74527 42.2708C7.77384 42.2236 7.80176 42.176 7.8309 42.1292C7.94899 41.9397 8.07123 41.7532 8.19862 41.5706C8.26145 41.4806 8.32642 41.3923 8.39146 41.304C8.42492 41.2586 8.45726 41.2122 8.49129 41.1673C8.59334 41.0326 8.69766 40.8998 8.80472 40.7696C8.90714 40.6448 9.01239 40.5226 9.11926 40.4022C9.25933 40.2442 9.4035 40.0905 9.55088 39.9405C9.58848 39.9022 9.62725 39.8652 9.66533 39.8275C9.78058 39.7131 9.89783 39.6012 10.0172 39.4918C10.0622 39.4506 10.1072 39.4094 10.1528 39.3689C10.3199 39.2204 10.4897 39.0753 10.6642 38.9369C10.6775 38.9264 10.6912 38.9167 10.7045 38.9063C10.868 38.7778 11.0352 38.6549 11.2046 38.5357C11.2673 38.4916 11.3302 38.4477 11.3937 38.4049C11.4501 38.3668 11.5068 38.3291 11.5639 38.2921C11.6452 38.2394 11.7273 38.1882 11.8098 38.1378C11.8662 38.1033 11.9224 38.0685 11.9794 38.035C12.0664 37.9838 12.1546 37.9348 12.2429 37.8861C12.2965 37.8565 12.3496 37.8262 12.4036 37.7975C12.5052 37.7437 12.6082 37.6927 12.7113 37.6422C12.7532 37.6216 12.7945 37.5998 12.8367 37.5798C12.9732 37.5151 13.1112 37.4538 13.2502 37.3952C13.2872 37.3796 13.3246 37.3649 13.3618 37.3497C13.469 37.3059 13.5769 37.2639 13.6856 37.2237C13.7282 37.208 13.7708 37.1921 13.8137 37.177C13.9418 37.1315 14.0707 37.0883 14.2006 37.0481C14.2168 37.0431 14.2327 37.0374 14.2489 37.0325C14.3939 36.9883 14.5402 36.9483 14.6872 36.9108C14.7283 36.9004 14.7696 36.8909 14.8108 36.881C14.9226 36.854 15.035 36.829 15.1478 36.806C15.1913 36.7971 15.2347 36.788 15.2783 36.7797C15.4284 36.7512 15.5791 36.7251 15.7309 36.7038L32.7173 34.3165L32.7514 15.9826C32.7517 15.8016 32.7563 15.6211 32.765 15.4412C32.7679 15.3812 32.7738 15.3217 32.7776 15.2619C32.7852 15.1422 32.7921 15.0224 32.8033 14.9034C32.81 14.8322 32.82 14.7618 32.8279 14.6909C32.84 14.5838 32.8508 14.4764 32.8657 14.3698C32.8763 14.2943 32.8901 14.2195 32.902 14.1443C32.9181 14.0432 32.933 13.9418 32.9516 13.8413C32.966 13.7635 32.9836 13.6865 32.9995 13.609C33.0194 13.5121 33.0381 13.4149 33.0603 13.3187C33.0785 13.2399 33.0997 13.162 33.1194 13.0836C33.143 12.9897 33.1655 12.8956 33.1913 12.8024C33.213 12.7238 33.2377 12.6461 33.261 12.568C33.2883 12.4763 33.3146 12.3843 33.3439 12.2933C33.3693 12.2147 33.3975 12.1373 33.4244 12.0593C33.4554 11.9694 33.4854 11.8791 33.5184 11.79C33.5358 11.743 33.5548 11.6967 33.5727 11.6499C33.6144 11.5414 33.6569 11.4332 33.7015 11.326C33.7251 11.2693 33.7497 11.2131 33.7741 11.1567C33.8161 11.0598 33.8589 10.9634 33.9032 10.8676C33.93 10.8097 33.9572 10.752 33.9849 10.6946C34.0306 10.5996 34.0776 10.5053 34.1256 10.4116C34.1534 10.3572 34.181 10.3026 34.2096 10.2487C34.2392 10.1928 34.2705 10.1381 34.3008 10.0827C34.3887 9.92268 34.4797 9.76474 34.5741 9.60894C34.6025 9.56196 34.6303 9.51456 34.6593 9.46799C34.7774 9.27843 34.8996 9.09183 35.027 8.90923C35.0528 8.87224 35.08 8.83638 35.1062 8.79969C35.2054 8.66059 35.3072 8.52361 35.4117 8.38893C35.4512 8.33795 35.4911 8.28725 35.5313 8.23693C35.6394 8.10182 35.7502 7.96913 35.8634 7.8389C35.891 7.8072 35.9176 7.77455 35.9454 7.74314C36.086 7.58469 36.2307 7.43042 36.3786 7.27985C36.416 7.24175 36.4546 7.205 36.4925 7.16744C36.6086 7.05227 36.7267 6.9395 36.847 6.82937C36.8919 6.78823 36.9368 6.74709 36.9822 6.70669C37.1494 6.55817 37.3192 6.41315 37.4937 6.27476C37.5089 6.26273 37.5246 6.2516 37.5399 6.23965C37.7018 6.11249 37.8673 5.99083 38.0351 5.87285C38.0971 5.82929 38.159 5.78583 38.2218 5.74356C38.279 5.70495 38.3365 5.66671 38.3945 5.62918C38.4747 5.57722 38.5556 5.52671 38.637 5.47688C38.6948 5.44143 38.7526 5.4059 38.811 5.37155C38.8959 5.3217 38.9817 5.27385 39.0677 5.22634C39.1239 5.19533 39.1797 5.16362 39.2364 5.13362C39.331 5.08351 39.4269 5.03604 39.5228 4.98882C39.5722 4.96453 39.621 4.939 39.6707 4.9155C39.8065 4.85127 39.9435 4.7901 40.0817 4.73182C40.1162 4.71728 40.1511 4.70381 40.1857 4.68964C40.2945 4.64509 40.4041 4.60238 40.5143 4.56162C40.5572 4.54577 40.6 4.52999 40.6431 4.51472C40.7674 4.47065 40.8924 4.42885 41.0184 4.38968C41.0384 4.38346 41.0581 4.37649 41.0781 4.37039C41.2228 4.32638 41.3688 4.28633 41.5154 4.24896C41.5558 4.23869 41.5964 4.22944 41.6369 4.21966C41.749 4.1926 41.8617 4.16748 41.9749 4.1444C42.0184 4.13553 42.0618 4.12646 42.1054 4.11819C42.2553 4.08976 42.4058 4.06363 42.5573 4.04233C42.6942 4.02309 42.8303 4.00782 42.9658 3.99478C43.0083 3.99069 43.0505 3.98781 43.0929 3.98433C43.1871 3.97658 43.2809 3.96995 43.3743 3.96515Z" fill="#284A94"/>
<path d="M42.5573 4.04233C45.2623 3.66216 47.7037 4.50177 49.472 6.16516C51.2423 7.82826 52.3315 10.3141 52.326 13.2315L52.292 31.5654L69.2784 29.1781C74.6824 28.4187 79.0559 32.5328 79.0451 38.3655C79.0397 41.2829 77.9407 44.0785 76.1653 46.2377C74.3919 48.401 71.9401 49.9261 69.2391 50.3057L52.2527 52.693L52.2187 71.0269C52.2079 76.8596 47.8167 82.2055 42.4107 82.9653C39.7077 83.3452 37.2643 82.508 35.496 80.8446C33.7277 79.1813 32.6385 76.6954 32.6439 73.778L32.678 55.4441L15.6916 57.8314C10.2856 58.5911 5.91203 54.477 5.92287 48.6421C5.92829 45.7269 7.02928 42.9289 8.80468 40.7696C10.5781 38.6085 13.0299 37.0834 15.7309 36.7038L32.7172 34.3165L32.7513 15.9826C32.7621 10.1477 37.1533 4.80181 42.5573 4.04233Z" fill="url(#paint0_linear_45_6896)"/>
<g opacity="0.7">
<path d="M49.6131 6.38613C46.9831 3.88628 42.9457 3.68996 39.7902 5.25612C37.3296 6.47179 35.3789 8.57998 34.2084 11.0483C33.9126 11.7342 33.6158 12.4807 33.4381 13.2038C33.2323 14.0227 33.082 14.9386 33.067 15.788C33.0086 20.7356 32.9261 29.2761 32.841 34.3178L32.8396 34.424L32.7353 34.4391C27.8164 35.1263 20.5355 36.2216 15.6647 36.8534C15.6035 36.8238 32.7824 34.2837 32.7023 34.3163C32.768 29.3783 32.804 20.6263 32.902 15.7814C32.9214 14.9205 33.0763 13.994 33.2884 13.1645C33.471 12.4338 33.7746 11.6779 34.0767 10.9862C35.2694 8.49628 37.2493 6.37273 39.7412 5.15427C42.9202 3.58572 47.0623 3.81738 49.6131 6.38613Z" fill="#E7E7E7"/>
</g>
<defs>
<linearGradient id="paint0_linear_45_6896" x1="21.0001" y1="28.5" x2="48.5001" y2="77.5" gradientUnits="userSpaceOnUse">
<stop stop-color="#96C0FF"/>
<stop offset="0.290411" stop-color="#297EFF"/>
<stop offset="1" stop-color="#162B4A"/>
</linearGradient>
</defs>
</svg>
