<svg width="127" height="126" viewBox="0 0 127 126" fill="none" xmlns="http://www.w3.org/2000/svg">
<path d="M69.9941 52.2749C73.6617 48.1144 74.2425 42.8299 71.2914 40.4716C68.3403 38.1134 62.9748 39.5745 59.3072 43.7351C55.6397 47.8957 55.0588 53.1802 58.0099 55.5384C60.961 57.8966 66.3265 56.4355 69.9941 52.2749Z" fill="#CD382E"/>
<path d="M108.795 111.288C108.795 111.288 102.49 147.37 81.027 141.235C81.027 141.235 65.5067 135.907 67.4022 122.902C67.4022 122.902 84.1353 117.045 88.4911 101.73L108.795 111.288Z" fill="url(#paint0_linear_45_6797)"/>
<path d="M41.5803 71.7582C39.7373 75.3174 39.3766 79.3664 42.6356 81.9707C45.8946 84.5749 50.7061 84.225 53.3823 81.189L95.0974 33.866C97.7736 30.8301 97.3012 26.2578 94.0422 23.6535C90.7831 21.0493 85.9717 21.3992 83.2955 24.4352C83.2955 24.4352 54.025 47.7248 41.5803 71.7582Z" fill="url(#paint1_linear_45_6797)"/>
<path d="M49.9572 83.4355L122.388 119.701C126.023 121.521 130.448 120.729 133.033 117.796L145.72 103.404C148.306 100.471 148.358 96.184 145.845 93.0917L96.2811 32.0895C96.2811 32.0895 69.0917 52.9726 49.9572 83.4355Z" fill="url(#paint2_linear_45_6797)"/>
<g opacity="0.39">
<path d="M41.5458 71.7397C47.351 60.9433 55.3617 51.3979 63.8156 42.4002C70.2754 35.7379 77.0167 29.2783 84.3001 23.4208C87.0489 21.4859 90.6867 21.4091 93.4951 23.4223L93.4528 23.4839C92.1142 22.6374 90.526 22.106 88.9259 22.1639C87.3295 22.2142 85.7918 22.8038 84.5453 23.7165C83.3481 24.6947 82.195 25.7366 81.037 26.7634C66.1756 40.2176 51.9721 54.9985 41.5458 71.7397Z" fill="white"/>
</g>
<g opacity="0.3" filter="url(#filter0_f_45_6797)">
<path d="M145.01 93.6155L95.4461 32.6133L93.9395 33.9205L145.01 93.6155Z" fill="white"/>
</g>
<mask id="mask0_45_6797" style="mask-type:luminance" maskUnits="userSpaceOnUse" x="32" y="21" width="3" height="2">
<path d="M34.4292 21.1408L32.1566 22.605C32.1867 22.5856 32.2206 22.5702 32.2581 22.56L34.5308 21.0959C34.4933 21.1061 34.4593 21.1214 34.4292 21.1408Z" fill="white"/>
</mask>
<g mask="url(#mask0_45_6797)">
<path d="M32.2581 22.5599L34.5308 21.0957C34.5226 21.098 34.5146 21.1004 34.5068 21.1031L32.2341 22.5673C32.2419 22.5646 32.2499 22.5621 32.2581 22.5599Z" fill="#FFC1C1"/>
<path d="M32.2347 22.5675L34.5073 21.1033C34.4792 21.113 34.4533 21.1257 34.4298 21.1408L32.1572 22.605C32.1807 22.5898 32.2066 22.5771 32.2347 22.5675Z" fill="#FFC1C1"/>
</g>
<path d="M38.0648 21.0486L40.3374 19.5844L34.5309 21.0959L32.2583 22.56L38.0648 21.0486Z" fill="#8E2917"/>
<path d="M38.1644 21.0046L40.437 19.5405C40.407 19.5598 40.3736 19.5749 40.3371 19.5848L38.0644 21.049C38.1009 21.0391 38.1344 21.024 38.1644 21.0046Z" fill="#FFC1C1"/>
<mask id="mask1_45_6797" style="mask-type:luminance" maskUnits="userSpaceOnUse" x="38" y="19" width="3" height="3">
<path d="M38.1634 21.005L40.436 19.5408C40.4061 19.5602 40.3726 19.5753 40.3361 19.5852L38.0634 21.0494C38.0999 21.0395 38.1334 21.0243 38.1634 21.005Z" fill="white"/>
</mask>
<g mask="url(#mask1_45_6797)">
<path d="M38.1634 21.0052L40.436 19.541C40.4124 19.5562 40.3866 19.5688 40.3589 19.5783L38.0863 21.0425C38.114 21.033 38.1398 21.0204 38.1634 21.0052Z" fill="#FFC1C1"/>
<path d="M38.0867 21.0423L40.3594 19.5781C40.3519 19.5807 40.3443 19.583 40.3365 19.5851L38.0639 21.0493C38.0716 21.0472 38.0793 21.0448 38.0867 21.0423Z" fill="#FFC1C1"/>
</g>
<path d="M50.4747 38.8753L52.7474 37.4111C52.8944 37.3164 52.9769 37.1176 52.8725 36.9169L50.5999 38.381C50.7043 38.5817 50.6217 38.7806 50.4747 38.8753Z" fill="#FFC1C1"/>
<mask id="mask2_45_6797" style="mask-type:luminance" maskUnits="userSpaceOnUse" x="50" y="36" width="3" height="3">
<path d="M50.4752 38.8749L52.7479 37.4107C52.8949 37.316 52.9774 37.1172 52.873 36.9165L50.6004 38.3807C50.7048 38.5814 50.6222 38.7802 50.4752 38.8749Z" fill="white"/>
</mask>
<g mask="url(#mask2_45_6797)">
<path d="M50.4757 38.8747L52.7484 37.4105C52.8954 37.3158 52.9779 37.117 52.8735 36.9163L50.6008 38.3805C50.7053 38.5812 50.6227 38.78 50.4757 38.8747Z" fill="#8E2917"/>
</g>
<path d="M35.2437 7.82797L32.971 9.29215C33.0026 9.27177 33.0372 9.25617 33.0736 9.24629L35.3462 7.78212C35.3099 7.79199 35.2753 7.8076 35.2437 7.82797Z" fill="#FFC1C1"/>
<mask id="mask3_45_6797" style="mask-type:luminance" maskUnits="userSpaceOnUse" x="32" y="7" width="4" height="3">
<path d="M35.2427 7.82865L32.97 9.29283C33.0017 9.27245 33.0363 9.25685 33.0726 9.24697L35.3452 7.7828C35.3089 7.79267 35.2743 7.80828 35.2427 7.82865Z" fill="white"/>
</mask>
<g mask="url(#mask3_45_6797)">
<path d="M33.0721 9.24722L35.3447 7.78304C35.3372 7.78508 35.3298 7.78737 35.3224 7.78989L33.0498 9.25407C33.0571 9.25154 33.0646 9.24926 33.0721 9.24722Z" fill="#FFC1C1"/>
<path d="M33.0501 9.25354L35.3228 7.78936C35.2946 7.79904 35.2676 7.8122 35.2425 7.82836L32.9699 9.29254C32.9949 9.27638 33.0219 9.26322 33.0501 9.25354Z" fill="#FFC1C1"/>
</g>
<mask id="mask4_45_6797" style="mask-type:luminance" maskUnits="userSpaceOnUse" x="33" y="7" width="3" height="3">
<path d="M33.4126 9.33724L35.6852 7.87306C35.5787 7.77415 35.4547 7.75244 35.3461 7.78194L33.0735 9.24612C33.182 9.21662 33.306 9.23833 33.4126 9.33724Z" fill="white"/>
</mask>
<g mask="url(#mask4_45_6797)">
<path d="M33.4131 9.33732L35.6857 7.87314C35.6457 7.83597 35.6032 7.80971 35.56 7.79296L33.2873 9.25714C33.3305 9.27389 33.373 9.30015 33.4131 9.33732Z" fill="#E34236"/>
<path d="M33.2872 9.25697L35.5599 7.79279C35.5344 7.78294 35.5087 7.77638 35.4832 7.77284L33.2105 9.23702C33.2361 9.24055 33.2618 9.24711 33.2872 9.25697Z" fill="#E34236"/>
<path d="M33.2105 9.23711L35.4832 7.77293C35.4586 7.76953 35.4341 7.76891 35.41 7.77083L33.1374 9.23501C33.1614 9.23309 33.1859 9.2337 33.2105 9.23711Z" fill="#E34236"/>
<path d="M33.1375 9.23497L35.4101 7.7708C35.3886 7.77252 35.3673 7.77628 35.3466 7.7819L33.074 9.24608C33.0947 9.24046 33.1159 9.23669 33.1375 9.23497Z" fill="#E34236"/>
</g>
<path d="M50.5998 38.381L52.8725 36.9168L47.5761 26.7157L45.3035 28.1799L50.5998 38.381Z" fill="#8E2917"/>
<mask id="mask5_45_6797" style="mask-type:luminance" maskUnits="userSpaceOnUse" x="45" y="26" width="8" height="13">
<path d="M50.5998 38.381L52.8725 36.9168L47.5761 26.7157L45.3035 28.1799L50.5998 38.381Z" fill="white"/>
</mask>
<g mask="url(#mask5_45_6797)">
<path d="M43.9208 27.953L52.898 33.2916L47.9499 24.6685L43.9208 27.953Z" fill="#8E2917"/>
</g>
<mask id="mask6_45_6797" style="mask-type:luminance" maskUnits="userSpaceOnUse" x="45" y="26" width="3" height="3">
<path d="M47.6982 26.2214L45.4256 27.6856C45.2701 27.7858 45.209 28.0015 45.3036 28.1802L47.5763 26.716C47.4817 26.5374 47.5427 26.3216 47.6982 26.2214Z" fill="white"/>
</mask>
<g mask="url(#mask6_45_6797)">
<path d="M45.3036 28.1802L47.5763 26.716C47.4817 26.5374 47.5427 26.3216 47.6982 26.2214L45.4256 27.6856C45.2701 27.7858 45.209 28.0015 45.3036 28.1802Z" fill="#8E2917"/>
</g>
<path d="M50.9318 25.5691L53.2044 24.1049L35.6858 7.87299L33.4131 9.33717L50.9318 25.5691Z" fill="#E34236"/>
<path d="M50.89 26.1667L53.1626 24.7026C53.3563 24.5778 53.3915 24.2807 53.2039 24.105L50.9312 25.5692C51.1188 25.7449 51.0837 26.042 50.89 26.1667Z" fill="#E34236"/>
<mask id="mask7_45_6797" style="mask-type:luminance" maskUnits="userSpaceOnUse" x="50" y="24" width="4" height="3">
<path d="M50.8905 26.1663L53.1631 24.7022C53.3568 24.5774 53.392 24.2803 53.2044 24.1046L50.9317 25.5688C51.1193 25.7445 51.0841 26.0416 50.8905 26.1663Z" fill="white"/>
</mask>
<g mask="url(#mask7_45_6797)">
<path d="M50.891 26.1662L53.1636 24.702C53.3573 24.5772 53.3925 24.2801 53.2049 24.1045L50.9322 25.5686C51.1198 25.7443 51.0846 26.0414 50.891 26.1662Z" fill="#E34236"/>
</g>
<path d="M33.0732 9.24606C32.8694 9.30144 32.7202 9.53743 32.844 9.78224L38.2913 20.5125C38.3981 20.7299 38.2888 20.9877 38.0644 21.0487L32.2579 22.5601C31.9723 22.6377 31.8951 23.0132 32.1233 23.2111L50.0447 38.837C50.1496 38.929 50.2686 38.9488 50.3731 38.9204C50.5777 38.8648 50.7259 38.6242 50.5994 38.3809L45.303 28.1799C45.1906 27.9676 45.298 27.703 45.5224 27.642L50.7902 26.2107C51.0675 26.1354 51.1472 25.7716 50.931 25.5691L33.4123 9.33718C33.3058 9.23827 33.1818 9.21656 33.0732 9.24606Z" fill="url(#paint3_linear_45_6797)"/>
<g opacity="0.6">
<path d="M45.3032 28.1799C46.8987 31.5302 48.778 35.1522 50.5995 38.381C49.0051 35.0302 47.1238 31.4093 45.3032 28.1799Z" fill="white"/>
</g>
<g opacity="0.6">
<path d="M33.4123 9.33715C38.9778 14.669 45.1933 20.4295 50.931 25.5691C45.3663 20.2364 39.1493 14.4776 33.4123 9.33715Z" fill="white"/>
</g>
<g opacity="0.6">
<path d="M38.0645 21.0489C36.1142 21.4932 34.1783 21.9966 32.258 22.5603C34.2084 22.1164 36.1441 21.6121 38.0645 21.0489Z" fill="white"/>
</g>
<defs>
<filter id="filter0_f_45_6797" x="91.1388" y="29.8126" width="56.6722" height="66.6036" filterUnits="userSpaceOnUse" color-interpolation-filters="sRGB">
<feFlood flood-opacity="0" result="BackgroundImageFix"/>
<feBlend mode="normal" in="SourceGraphic" in2="BackgroundImageFix" result="shape"/>
<feGaussianBlur stdDeviation="1.40035" result="effect1_foregroundBlur_45_6797"/>
</filter>
<linearGradient id="paint0_linear_45_6797" x1="74.7998" y1="139.022" x2="96.7154" y2="104.269" gradientUnits="userSpaceOnUse">
<stop stop-color="#F44C3F"/>
<stop offset="1" stop-color="#681B0E"/>
</linearGradient>
<linearGradient id="paint1_linear_45_6797" x1="84.1046" y1="22.6935" x2="51.1401" y2="90.987" gradientUnits="userSpaceOnUse">
<stop stop-color="#DEDEDE"/>
<stop offset="0.40588" stop-color="#F44C3F"/>
<stop offset="1" stop-color="#521108"/>
</linearGradient>
<linearGradient id="paint2_linear_45_6797" x1="118.215" y1="39.8849" x2="93.4738" y2="109.498" gradientUnits="userSpaceOnUse">
<stop stop-color="#D23B2F"/>
<stop offset="1" stop-color="#6C1E18"/>
</linearGradient>
<linearGradient id="paint3_linear_45_6797" x1="36.9375" y1="8.11908" x2="46.269" y2="40.1173" gradientUnits="userSpaceOnUse">
<stop stop-color="#F44C3F"/>
<stop offset="1" stop-color="#802412"/>
</linearGradient>
</defs>
</svg>
