<svg width="23" height="24" viewBox="0 0 23 24" fill="none" xmlns="http://www.w3.org/2000/svg">
<mask id="mask0_45_5385" style="mask-type:alpha" maskUnits="userSpaceOnUse" x="0" y="0" width="23" height="24">
<circle cx="11.5" cy="12" r="11.5" fill="white"/>
</mask>
<g mask="url(#mask0_45_5385)">
<path d="M18.5939 17.1332C18.5192 15.7764 17.7088 14.6385 16.5856 14.2688C15.1542 13.7976 13.8253 14.775 13.2299 15.5049C11.8398 17.2089 12.5785 19.8562 13.2028 21.1167C14.6509 24.0406 18.5197 25.6346 23 25.36H-2C-1.34094 24.9103 -0.376631 24.1591 0.526329 23.0186C1.57368 21.6958 2.05479 20.0833 2.6101 18.5182C3.10463 17.1244 3.75608 15.8906 4.73545 14.7724C6.55681 12.6929 9.32283 10.8901 12.1876 11.0052C12.6104 11.0222 13.0313 11.0842 13.4394 11.1969C13.4394 11.1969 18.3185 12.3918 18.5939 17.1332Z" fill="#F12A1A"/>
<path d="M10.8877 7.50586C11.3861 7.52592 11.8791 7.59918 12.3545 7.73047L12.3682 7.73438H12.3691C12.3709 7.73482 12.3743 7.73612 12.3789 7.7373C12.3881 7.7397 12.403 7.74352 12.4229 7.74902C12.463 7.76013 12.5246 7.77705 12.6035 7.80176C12.7615 7.85121 12.991 7.92912 13.2686 8.04102C13.825 8.26531 14.5686 8.62392 15.3203 9.1582C15.9349 9.59503 16.5501 10.1481 17.0752 10.8398C16.9266 10.768 16.7738 10.7036 16.6152 10.6514C15.5597 10.3039 14.5537 10.4972 13.7314 10.8857C12.915 11.2715 12.2511 11.8612 11.8359 12.3701C10.8461 13.5835 10.6354 15.1054 10.7539 16.4805C10.8725 17.8574 11.3251 19.1511 11.7412 19.9912C12.792 22.1128 14.7611 23.6814 17.25 24.625H-5.51367C-4.85564 24.0744 -4.12241 23.3689 -3.41895 22.4805C-2.03241 20.7293 -1.39691 18.5924 -0.709961 16.6562C-0.101784 14.9422 0.692578 13.4442 1.87793 12.0908C4.12712 9.52298 7.48514 7.36906 10.8877 7.50586Z" stroke="#1E1E1E"/>
</g>
</svg>
