<svg width="16" height="22" viewBox="0 0 16 22" fill="none" xmlns="http://www.w3.org/2000/svg">
<path d="M6.38938 18.3846C7.24902 20.3026 9.61303 20.9273 10.6876 21C15.8454 20.8256 16.2991 14.9701 15.8812 12.0641C14.1619 13.2846 13.5482 11.9915 13.7273 11.1923C14.5869 8.05385 12.1203 5.08974 10.5085 4C11.3681 6.9641 10.1503 7.85043 9.43391 7.92308C8.43099 8.44615 8.29966 11.3376 8.35937 12.7179C7.35645 13.9385 6.86695 12.2094 6.74756 11.1923C5.17155 13.9821 6.44907 17.4402 7.28483 18.8205L6.38938 18.3846Z" fill="#F12A1A"/>
<path d="M1.54513 18.0769C2.74862 20.2205 6.05824 20.9188 7.5626 21C14.7836 20.8051 15.4187 14.2607 14.8337 11.0128C12.4267 12.3769 12.3264 10.9316 12.5771 10.0385C13.7806 6.53077 9.5684 3.21795 7.31185 2C8.51535 5.31282 6.81039 6.30342 5.80748 6.38462C4.40338 6.96923 4.21953 10.2009 4.30311 11.7436C2.89903 13.1077 2.21373 11.1752 2.04658 10.0385C-0.159824 13.1564 1.6287 17.0214 2.79877 18.5641L1.54513 18.0769Z" stroke="#1E1E1E"/>
<path d="M3.84548 5.02248C3.1531 5.77709 1.94849 7.48754 2.66904 8.29251C3.40359 7.76478 4.66724 6.37196 3.84548 5.02248Z" fill="#1E1E1E"/>
</svg>
