<svg width="21" height="20" viewBox="0 0 21 20" fill="none" xmlns="http://www.w3.org/2000/svg">
<path d="M14.8408 1C16.5298 1.00012 17.9118 2.30775 18.0332 3.96582C19.6918 4.08667 20.9999 5.4698 21 7.15918C21 8.92809 19.5658 10.3623 17.7969 10.3623C17.1796 10.3623 16.6041 10.1863 16.1152 9.88379L15.5 10.5L12 9L11 7L12.2412 6.06836C11.8631 5.54294 11.6377 4.90013 11.6377 4.20312C11.6377 2.43421 13.0719 1 14.8408 1Z" fill="#F12A1A"/>
<path d="M11 12L14.5 13.5L12.8818 15.1172C13.1841 15.606 13.3623 16.1799 13.3623 16.7969C13.3623 18.5658 11.9281 20 10.1592 20C8.4698 19.9999 7.08667 18.6918 6.96582 17.0332C5.30775 16.9118 4.00012 15.5298 4 13.8408C4 12.0719 5.43421 10.6377 7.20312 10.6377C7.81959 10.6377 8.39326 10.8153 8.88184 11.1172L10 10L11 12Z" fill="#F12A1A"/>
<path d="M12.3408 1L12.3409 0.5H12.3408V1ZM15.5332 3.96582L15.0345 4.00232L15.0661 4.43311L15.4969 4.4645L15.5332 3.96582ZM18.5 7.15918H19V7.15914L18.5 7.15918ZM15.2969 10.3623L15.2968 10.8623H15.2969V10.3623ZM13.6152 9.88379L13.8784 9.45863L13.5414 9.25008L13.2614 9.53052L13.6152 9.88379ZM13 10.5L12.803 10.9596L13.1145 11.093L13.3538 10.8533L13 10.5ZM9.5 9L9.05279 9.22361L9.1347 9.38742L9.30304 9.45957L9.5 9ZM8.5 7L8.19985 6.60011L7.86624 6.85052L8.05279 7.22361L8.5 7ZM9.74121 6.06836L10.0414 6.46825L10.4333 6.17407L10.147 5.7763L9.74121 6.06836ZM9.1377 4.20312H8.6377V4.20316L9.1377 4.20312ZM12.3408 1L12.3408 1.5C13.7656 1.5001 14.9321 2.60324 15.0345 4.00232L15.5332 3.96582L16.0319 3.92932C15.8915 2.01225 14.2941 0.500135 12.3409 0.5L12.3408 1ZM15.5332 3.96582L15.4969 4.4645C16.8962 4.56646 17.9999 5.73393 18 7.15922L18.5 7.15918L19 7.15914C18.9998 5.20567 17.4874 3.60689 15.5695 3.46714L15.5332 3.96582ZM18.5 7.15918H18C18 8.65195 16.7896 9.8623 15.2969 9.8623V10.3623V10.8623C17.3419 10.8623 19 9.20423 19 7.15918H18.5ZM15.2969 10.3623L15.2969 9.8623C14.7761 9.86226 14.2912 9.71412 13.8784 9.45863L13.6152 9.88379L13.3521 10.3089C13.917 10.6586 14.5832 10.8622 15.2968 10.8623L15.2969 10.3623ZM13.6152 9.88379L13.2614 9.53052L12.6462 10.1467L13 10.5L13.3538 10.8533L13.9691 10.2371L13.6152 9.88379ZM13 10.5L13.197 10.0404L9.69696 8.54043L9.5 9L9.30304 9.45957L12.803 10.9596L13 10.5ZM9.5 9L9.94721 8.77639L8.94721 6.77639L8.5 7L8.05279 7.22361L9.05279 9.22361L9.5 9ZM8.5 7L8.80015 7.39989L10.0414 6.46825L9.74121 6.06836L9.44106 5.66847L8.19985 6.60011L8.5 7ZM9.74121 6.06836L10.147 5.7763C9.82715 5.33178 9.63774 4.79027 9.6377 4.20309L9.1377 4.20312L8.6377 4.20316C8.63775 5.00999 8.89905 5.7541 9.33537 6.36042L9.74121 6.06836ZM9.1377 4.20312H9.6377C9.6377 2.71036 10.8481 1.5 12.3408 1.5V1V0.5C10.2958 0.5 8.6377 2.15807 8.6377 4.20312H9.1377Z" fill="#1E1E1E"/>
<path d="M6.79005 2.05008L4.55451 0.601266L5.64027 2.14499L5.16815 3.29132L7.71433 5.7388L6.31792 3.19641L6.79005 2.05008Z" fill="#F12A1A"/>
<path d="M8 11L7.55279 11.2236L7.6347 11.3874L7.80304 11.4596L8 11ZM11.5 12.5L11.8534 12.8537L12.376 12.3314L11.697 12.0404L11.5 12.5ZM9.88184 14.1172L9.52839 13.7635L9.24833 14.0434L9.45658 14.3802L9.88184 14.1172ZM10.3623 15.7969H10.8623V15.7968L10.3623 15.7969ZM7.15918 19L7.15914 19.5H7.15918V19ZM3.96582 16.0332L4.4645 15.9969L4.43311 15.5661L4.00232 15.5345L3.96582 16.0332ZM1 12.8408H0.5V12.8409L1 12.8408ZM4.20312 9.6377L4.20316 9.1377H4.20312V9.6377ZM5.88184 10.1172L5.61904 10.5426L5.95548 10.7504L6.23523 10.4709L5.88184 10.1172ZM7 9L7.44721 8.77639L7.13712 8.1562L6.6466 8.64629L7 9ZM8 11L7.80304 11.4596L11.303 12.9596L11.5 12.5L11.697 12.0404L8.19696 10.5404L8 11ZM11.5 12.5L11.1466 12.1463L9.52839 13.7635L9.88184 14.1172L10.2353 14.4708L11.8534 12.8537L11.5 12.5ZM9.88184 14.1172L9.45658 14.3802C9.71273 14.7944 9.86226 15.2779 9.8623 15.7969L10.3623 15.7969L10.8623 15.7968C10.8622 15.082 10.6555 14.4176 10.3071 13.8542L9.88184 14.1172ZM10.3623 15.7969H9.8623C9.8623 17.2896 8.65195 18.5 7.15918 18.5V19V19.5C9.20423 19.5 10.8623 17.8419 10.8623 15.7969H10.3623ZM7.15918 19L7.15922 18.5C5.73393 18.4999 4.56646 17.3962 4.4645 15.9969L3.96582 16.0332L3.46714 16.0695C3.60689 17.9874 5.20567 19.4998 7.15914 19.5L7.15918 19ZM3.96582 16.0332L4.00232 15.5345C2.60324 15.4321 1.5001 14.2656 1.5 12.8408L1 12.8408L0.5 12.8409C0.500135 14.7941 2.01225 16.3915 3.92932 16.5319L3.96582 16.0332ZM1 12.8408H1.5C1.5 11.3481 2.71036 10.1377 4.20312 10.1377V9.6377V9.1377C2.15807 9.1377 0.5 10.7958 0.5 12.8408H1ZM4.20312 9.6377L4.20309 10.1377C4.72186 10.1377 5.20518 10.2869 5.61904 10.5426L5.88184 10.1172L6.14463 9.69182C5.58134 9.34382 4.91731 9.13774 4.20316 9.1377L4.20312 9.6377ZM5.88184 10.1172L6.23523 10.4709L7.3534 9.35371L7 9L6.6466 8.64629L5.52844 9.76348L5.88184 10.1172ZM7 9L6.55279 9.22361L7.55279 11.2236L8 11L8.44721 10.7764L7.44721 8.77639L7 9Z" fill="#1E1E1E"/>
</svg>
