<svg width="18" height="20" viewBox="0 0 18 20" fill="none" xmlns="http://www.w3.org/2000/svg">
<path d="M10.4414 8C11.1821 8.00017 11.845 8.38867 12.3027 9.00293C12.3258 9.00222 12.3489 9 12.3721 9C12.8095 9 13.2185 9.12867 13.5703 9.34961C13.8285 9.20655 14.113 9.12799 14.4111 9.12793C15.6023 9.12793 16.5684 10.3915 16.5684 11.9492C16.5683 12.2771 16.5221 12.5911 16.4434 12.8838C16.7876 13.3836 17 14.0439 17 14.7695C16.9999 16.3271 16.0338 17.5898 14.8428 17.5898C14.6017 17.5898 14.3708 17.5359 14.1543 17.4404C13.8815 17.7132 13.5654 17.872 13.2256 17.8721C13.015 17.8721 12.8143 17.8088 12.626 17.6982C12.2427 18.1552 11.7353 18.4355 11.1758 18.4355C10.7823 18.4355 10.4152 18.2955 10.0977 18.0547C9.74182 18.6308 9.19831 19 8.58789 19C7.51598 18.9999 6.64663 17.8637 6.64648 16.4619C6.64648 16.2599 6.66611 16.0633 6.7002 15.875C6.27239 15.4094 6 14.7076 6 13.9229C6.00008 12.521 6.86941 11.3848 7.94141 11.3848C7.94891 11.3848 7.95639 11.3856 7.96387 11.3857C7.95034 11.2594 7.94141 11.1308 7.94141 11C7.94141 9.34315 9.06069 8 10.4414 8Z" fill="#F12A1A"/>
<mask id="path-2-inside-1_64_7696" fill="white">
<path d="M9.16699 7C10.5394 7.0001 11.7348 7.61775 12.3633 8.53125C12.7179 8.40264 13.1009 8.33301 13.5 8.33301C15.3409 8.33301 16.833 9.82604 16.833 11.667C16.833 12.0543 16.766 12.4257 16.6445 12.7715C17.176 13.362 17.5 14.143 17.5 15C17.5 16.8408 16.0078 18.3328 14.167 18.333C13.7951 18.333 13.4375 18.2715 13.1035 18.1592C12.6821 18.4809 12.1916 18.6669 11.667 18.667C11.3431 18.667 11.0321 18.5953 10.7422 18.4658C10.1501 19.0045 9.36357 19.333 8.5 19.333C7.89198 19.333 7.3228 19.1691 6.83203 18.8848C6.28205 19.5644 5.44241 20 4.5 20C2.84315 20 1.5 18.6569 1.5 17C1.5 16.7611 1.53026 16.5294 1.58301 16.3066C0.921587 15.7563 0.5 14.9277 0.5 14C0.5 12.6926 1.33709 11.5828 2.50391 11.1719C2.58778 9.59008 3.89731 8.33301 5.5 8.33301C5.69608 8.33301 5.88765 8.35275 6.07324 8.38867C6.72429 7.55372 7.86677 7 9.16699 7Z"/>
</mask>
<path d="M9.16699 7L9.16706 6H9.16699V7ZM12.3633 8.53125L11.5394 9.09802L11.9775 9.73485L12.7042 9.47135L12.3633 8.53125ZM13.5 8.33301V7.33301V8.33301ZM16.833 11.667L17.833 11.6671V11.667H16.833ZM16.6445 12.7715L15.7011 12.44L15.5045 12.9996L15.9012 13.4404L16.6445 12.7715ZM17.5 15H18.5H17.5ZM14.167 18.333V19.333H14.1671L14.167 18.333ZM13.1035 18.1592L13.4224 17.2114L12.9189 17.042L12.4967 17.3644L13.1035 18.1592ZM11.667 18.667V19.667H11.6671L11.667 18.667ZM10.7422 18.4658L11.1501 17.5528L10.5529 17.286L10.0692 17.7262L10.7422 18.4658ZM8.5 19.333V20.333V19.333ZM6.83203 18.8848L7.33339 18.0195L6.59298 17.5905L6.05467 18.2557L6.83203 18.8848ZM1.58301 16.3066L2.5561 16.5371L2.69886 15.9342L2.22258 15.5379L1.58301 16.3066ZM2.50391 11.1719L2.83611 12.1151L3.46708 11.8929L3.5025 11.2248L2.50391 11.1719ZM6.07324 8.38867L5.88324 9.37045L6.48497 9.48691L6.86184 9.00358L6.07324 8.38867ZM9.16699 7L9.16692 8C10.2552 8.00008 11.1217 8.49081 11.5394 9.09802L12.3633 8.53125L13.1872 7.96448C12.348 6.7447 10.8237 6.00012 9.16706 6L9.16699 7ZM12.3633 8.53125L12.7042 9.47135C12.9502 9.38212 13.2179 9.33301 13.5 9.33301V8.33301V7.33301C12.9839 7.33301 12.4856 7.42316 12.0224 7.59115L12.3633 8.53125ZM13.5 8.33301V9.33301C14.7883 9.33301 15.833 10.3779 15.833 11.667H16.833H17.833C17.833 9.27414 15.8936 7.33301 13.5 7.33301V8.33301ZM16.833 11.667L15.833 11.6669C15.833 11.9381 15.7862 12.1976 15.7011 12.44L16.6445 12.7715L17.588 13.103C17.7458 12.6538 17.833 12.1704 17.833 11.6671L16.833 11.667ZM16.6445 12.7715L15.9012 13.4404C16.2743 13.855 16.5 14.4001 16.5 15H17.5H18.5C18.5 13.8859 18.0777 12.8691 17.3878 12.1025L16.6445 12.7715ZM17.5 15H16.5C16.5 16.2885 15.4556 17.3329 14.1669 17.333L14.167 18.333L14.1671 19.333C16.56 19.3328 18.5 17.3932 18.5 15H17.5ZM14.167 18.333V17.333C13.906 17.333 13.656 17.29 13.4224 17.2114L13.1035 18.1592L12.7847 19.107C13.219 19.2531 13.6843 19.333 14.167 19.333V18.333ZM13.1035 18.1592L12.4967 17.3644C12.2271 17.5701 11.9456 17.667 11.6668 17.667L11.667 18.667L11.6671 19.667C12.4377 19.6669 13.1371 19.3917 13.7104 18.954L13.1035 18.1592ZM11.667 18.667V17.667C11.4934 17.667 11.3207 17.629 11.1501 17.5528L10.7422 18.4658L10.3343 19.3789C10.7434 19.5616 11.1929 19.667 11.667 19.667V18.667ZM10.7422 18.4658L10.0692 17.7262C9.65387 18.104 9.10491 18.333 8.5 18.333V19.333V20.333C9.62223 20.333 10.6463 19.905 11.4152 19.2055L10.7422 18.4658ZM8.5 19.333V18.333C8.0742 18.333 7.67722 18.2188 7.33339 18.0195L6.83203 18.8848L6.33067 19.75C6.96837 20.1195 7.70977 20.333 8.5 20.333V19.333ZM6.83203 18.8848L6.05467 18.2557C5.68559 18.7118 5.12663 19 4.5 19V20V21C5.75819 21 6.8785 20.417 7.60939 19.5138L6.83203 18.8848ZM4.5 20V19C3.39543 19 2.5 18.1046 2.5 17H1.5H0.5C0.5 19.2091 2.29086 21 4.5 21V20ZM1.5 17H2.5C2.5 16.846 2.51947 16.6917 2.5561 16.5371L1.58301 16.3066L0.609919 16.0762C0.541061 16.367 0.5 16.6763 0.5 17H1.5ZM1.58301 16.3066L2.22258 15.5379C1.77923 15.169 1.5 14.6175 1.5 14H0.5H-0.5C-0.5 15.2378 0.0639428 16.3436 0.943433 17.0754L1.58301 16.3066ZM0.5 14H1.5C1.5 13.1313 2.05563 12.39 2.83611 12.1151L2.50391 11.1719L2.1717 10.2287C0.618552 10.7757 -0.5 12.254 -0.5 14H0.5ZM2.50391 11.1719L3.5025 11.2248C3.55837 10.1712 4.43184 9.33301 5.5 9.33301V8.33301V7.33301C3.36278 7.33301 1.61719 9.00899 1.50531 11.1189L2.50391 11.1719ZM5.5 8.33301V9.33301C5.62875 9.33301 5.75666 9.34596 5.88324 9.37045L6.07324 8.38867L6.26325 7.40689C6.01865 7.35955 5.76342 7.33301 5.5 7.33301V8.33301ZM6.07324 8.38867L6.86184 9.00358C7.30174 8.43942 8.1379 8 9.16699 8V7V6C7.59563 6 6.14684 6.66802 5.28464 7.77377L6.07324 8.38867Z" fill="#1E1E1E" mask="url(#path-2-inside-1_64_7696)"/>
<path d="M12.7807 2.87085L12.38 0.237189L11.9464 2.07402L10.7757 2.48198L10.6358 6.01095L11.61 3.27881L12.7807 2.87085Z" fill="#F12A1A"/>
<path d="M6.16205 3.13616L4.07733 1.47765L5.00849 3.11927L4.42757 4.21448L6.72474 6.89705L5.58113 4.23137L6.16205 3.13616Z" fill="#F12A1A"/>
</svg>
