<svg width="22" height="22" viewBox="0 0 22 22" fill="none" xmlns="http://www.w3.org/2000/svg">
<path d="M12.6023 17.6837L11.9186 18.3674C11.5241 18.7619 10.8844 18.7619 10.4899 18.3674L2.67709 10.5545C0.530938 8.40838 0.411743 4.90975 2.5094 2.71617C3.60471 1.57078 5.06541 0.998725 6.52478 1C7.94626 0.999995 9.36775 1.54176 10.4513 2.62527L11.203 3.37701L11.8759 2.70415C14.0225 0.557499 17.5219 0.437987 19.7163 2.53584C20.862 3.63121 21.4343 5.09213 21.433 6.55175C21.433 7.97322 20.8912 9.39472 19.8077 10.4782" stroke="#1E1E1E" stroke-miterlimit="10" stroke-linecap="round"/>
<path d="M12 13.5V5L15.2941 6.66667L19 5L16.5294 10.5H19L16.5294 14.8333H19L15.2941 22L15.9118 17.1667H13.4412L14.2647 13.5H12Z" fill="#F12A1A"/>
</svg>
