<svg width="16" height="21" viewBox="0 0 16 21" fill="none" xmlns="http://www.w3.org/2000/svg">
<path d="M14.8576 12.8537C16.4364 16.1858 14.2519 20.2004 10.5732 20.4491C10.4461 20.4577 10.318 20.4621 10.1888 20.4621C10.0596 20.4621 9.93145 20.4577 9.80444 20.4491C6.12569 20.2004 3.9412 16.1858 5.51997 12.8537L10.1888 3L14.8576 12.8537Z" fill="#F12A1A"/>
<path d="M10.8576 11.8537C12.4364 15.1858 10.2519 19.2004 6.57316 19.4491C6.44615 19.4577 6.31798 19.4621 6.1888 19.4621C6.05962 19.4621 5.93145 19.4577 5.80444 19.4491C2.12569 19.2004 -0.0587991 15.1858 1.51997 11.8537L6.1888 2L10.8576 11.8537Z" stroke="#1E1E1E" stroke-miterlimit="10"/>
</svg>
